<mxfile host="app.diagrams.net" modified="2021-07-04T04:07:03.466Z" agent="5.0 (Windows NT 10.0; Win64; x64) AppleWebKit/537.36 (KHTML, like Gecko) Chrome/91.0.4472.124 Safari/537.36" etag="09gP7Kkd5mhv4BhBos_l" version="14.8.0" type="github">
  <diagram id="sQcaDlpvSEKhb7I3R9dC" name="第 1 页">
    <mxGraphModel dx="1422" dy="794" grid="1" gridSize="10" guides="1" tooltips="1" connect="1" arrows="1" fold="1" page="1" pageScale="1" pageWidth="827" pageHeight="1169" math="0" shadow="0">
      <root>
        <mxCell id="0" />
        <mxCell id="1" parent="0" />
        <mxCell id="p9WKnUkofUUKUgiozpQW-115" value="" style="rounded=0;whiteSpace=wrap;html=1;" vertex="1" parent="1">
          <mxGeometry x="190" y="330" width="820" height="130" as="geometry" />
        </mxCell>
        <mxCell id="p9WKnUkofUUKUgiozpQW-89" value="" style="rounded=0;whiteSpace=wrap;html=1;" vertex="1" parent="1">
          <mxGeometry x="189" y="520" width="820" height="160" as="geometry" />
        </mxCell>
        <mxCell id="p9WKnUkofUUKUgiozpQW-65" value="" style="rounded=0;whiteSpace=wrap;html=1;" vertex="1" parent="1">
          <mxGeometry x="830" y="690" width="180" height="298" as="geometry" />
        </mxCell>
        <mxCell id="p9WKnUkofUUKUgiozpQW-52" value="" style="rounded=0;whiteSpace=wrap;html=1;" vertex="1" parent="1">
          <mxGeometry x="190" y="690" width="630" height="298" as="geometry" />
        </mxCell>
        <mxCell id="p9WKnUkofUUKUgiozpQW-44" value="" style="rounded=0;whiteSpace=wrap;html=1;" vertex="1" parent="1">
          <mxGeometry x="309.5" y="730" width="390" height="215" as="geometry" />
        </mxCell>
        <mxCell id="p9WKnUkofUUKUgiozpQW-25" value="" style="rounded=0;whiteSpace=wrap;html=1;" vertex="1" parent="1">
          <mxGeometry x="190" y="1030" width="830" height="50" as="geometry" />
        </mxCell>
        <mxCell id="p9WKnUkofUUKUgiozpQW-4" value="" style="rounded=0;whiteSpace=wrap;html=1;" vertex="1" parent="1">
          <mxGeometry x="219" y="1040" width="80" height="20" as="geometry" />
        </mxCell>
        <mxCell id="p9WKnUkofUUKUgiozpQW-5" value="" style="rounded=0;whiteSpace=wrap;html=1;" vertex="1" parent="1">
          <mxGeometry x="213" y="1046" width="80" height="20" as="geometry" />
        </mxCell>
        <mxCell id="p9WKnUkofUUKUgiozpQW-6" value="雷达" style="rounded=0;whiteSpace=wrap;html=1;" vertex="1" parent="1">
          <mxGeometry x="207" y="1052" width="80" height="20" as="geometry" />
        </mxCell>
        <mxCell id="p9WKnUkofUUKUgiozpQW-7" value="" style="rounded=0;whiteSpace=wrap;html=1;" vertex="1" parent="1">
          <mxGeometry x="339" y="1040" width="80" height="20" as="geometry" />
        </mxCell>
        <mxCell id="p9WKnUkofUUKUgiozpQW-8" value="" style="rounded=0;whiteSpace=wrap;html=1;" vertex="1" parent="1">
          <mxGeometry x="333" y="1046" width="80" height="20" as="geometry" />
        </mxCell>
        <mxCell id="p9WKnUkofUUKUgiozpQW-9" value="光电" style="rounded=0;whiteSpace=wrap;html=1;" vertex="1" parent="1">
          <mxGeometry x="327" y="1052" width="80" height="20" as="geometry" />
        </mxCell>
        <mxCell id="p9WKnUkofUUKUgiozpQW-10" value="" style="rounded=0;whiteSpace=wrap;html=1;" vertex="1" parent="1">
          <mxGeometry x="457" y="1040" width="80" height="20" as="geometry" />
        </mxCell>
        <mxCell id="p9WKnUkofUUKUgiozpQW-11" value="" style="rounded=0;whiteSpace=wrap;html=1;" vertex="1" parent="1">
          <mxGeometry x="451" y="1046" width="80" height="20" as="geometry" />
        </mxCell>
        <mxCell id="p9WKnUkofUUKUgiozpQW-12" value="红外" style="rounded=0;whiteSpace=wrap;html=1;" vertex="1" parent="1">
          <mxGeometry x="445" y="1052" width="80" height="20" as="geometry" />
        </mxCell>
        <mxCell id="p9WKnUkofUUKUgiozpQW-13" value="" style="rounded=0;whiteSpace=wrap;html=1;" vertex="1" parent="1">
          <mxGeometry x="571" y="1040" width="80" height="20" as="geometry" />
        </mxCell>
        <mxCell id="p9WKnUkofUUKUgiozpQW-14" value="" style="rounded=0;whiteSpace=wrap;html=1;" vertex="1" parent="1">
          <mxGeometry x="565" y="1046" width="80" height="20" as="geometry" />
        </mxCell>
        <mxCell id="p9WKnUkofUUKUgiozpQW-15" value="北斗/AIS" style="rounded=0;whiteSpace=wrap;html=1;" vertex="1" parent="1">
          <mxGeometry x="559" y="1052" width="80" height="20" as="geometry" />
        </mxCell>
        <mxCell id="p9WKnUkofUUKUgiozpQW-16" value="" style="rounded=0;whiteSpace=wrap;html=1;" vertex="1" parent="1">
          <mxGeometry x="691" y="1040" width="80" height="20" as="geometry" />
        </mxCell>
        <mxCell id="p9WKnUkofUUKUgiozpQW-17" value="" style="rounded=0;whiteSpace=wrap;html=1;" vertex="1" parent="1">
          <mxGeometry x="685" y="1046" width="80" height="20" as="geometry" />
        </mxCell>
        <mxCell id="p9WKnUkofUUKUgiozpQW-18" value="手持设备" style="rounded=0;whiteSpace=wrap;html=1;" vertex="1" parent="1">
          <mxGeometry x="679" y="1052" width="80" height="20" as="geometry" />
        </mxCell>
        <mxCell id="p9WKnUkofUUKUgiozpQW-19" value="" style="rounded=0;whiteSpace=wrap;html=1;" vertex="1" parent="1">
          <mxGeometry x="809" y="1040" width="80" height="20" as="geometry" />
        </mxCell>
        <mxCell id="p9WKnUkofUUKUgiozpQW-20" value="" style="rounded=0;whiteSpace=wrap;html=1;" vertex="1" parent="1">
          <mxGeometry x="803" y="1046" width="80" height="20" as="geometry" />
        </mxCell>
        <mxCell id="p9WKnUkofUUKUgiozpQW-21" value="无人机" style="rounded=0;whiteSpace=wrap;html=1;" vertex="1" parent="1">
          <mxGeometry x="797" y="1052" width="80" height="20" as="geometry" />
        </mxCell>
        <mxCell id="p9WKnUkofUUKUgiozpQW-22" value="" style="rounded=0;whiteSpace=wrap;html=1;" vertex="1" parent="1">
          <mxGeometry x="929" y="1040" width="80" height="20" as="geometry" />
        </mxCell>
        <mxCell id="p9WKnUkofUUKUgiozpQW-23" value="" style="rounded=0;whiteSpace=wrap;html=1;" vertex="1" parent="1">
          <mxGeometry x="923" y="1046" width="80" height="20" as="geometry" />
        </mxCell>
        <mxCell id="p9WKnUkofUUKUgiozpQW-24" value="视频监控设备" style="rounded=0;whiteSpace=wrap;html=1;" vertex="1" parent="1">
          <mxGeometry x="917" y="1052" width="80" height="20" as="geometry" />
        </mxCell>
        <mxCell id="p9WKnUkofUUKUgiozpQW-26" value="前端设备层" style="text;html=1;strokeColor=none;fillColor=none;align=center;verticalAlign=middle;whiteSpace=wrap;rounded=0;" vertex="1" parent="1">
          <mxGeometry x="100" y="1046" width="70" height="14" as="geometry" />
        </mxCell>
        <mxCell id="p9WKnUkofUUKUgiozpQW-27" value="数据接入服务" style="rounded=0;whiteSpace=wrap;html=1;" vertex="1" parent="1">
          <mxGeometry x="189" y="995" width="830" height="30" as="geometry" />
        </mxCell>
        <mxCell id="p9WKnUkofUUKUgiozpQW-29" value="关系型数据库" style="shape=cylinder3;whiteSpace=wrap;html=1;boundedLbl=1;backgroundOutline=1;size=15;" vertex="1" parent="1">
          <mxGeometry x="197" y="730" width="90" height="220" as="geometry" />
        </mxCell>
        <mxCell id="p9WKnUkofUUKUgiozpQW-31" value="结构化数据" style="rounded=0;whiteSpace=wrap;html=1;" vertex="1" parent="1">
          <mxGeometry x="218" y="958" width="266" height="20" as="geometry" />
        </mxCell>
        <mxCell id="p9WKnUkofUUKUgiozpQW-33" value="非结构化数据" style="rounded=0;whiteSpace=wrap;html=1;" vertex="1" parent="1">
          <mxGeometry x="525" y="958" width="266" height="20" as="geometry" />
        </mxCell>
        <mxCell id="p9WKnUkofUUKUgiozpQW-38" value="Hadoop" style="rounded=0;whiteSpace=wrap;html=1;" vertex="1" parent="1">
          <mxGeometry x="319" y="858" width="50.5" height="80" as="geometry" />
        </mxCell>
        <mxCell id="p9WKnUkofUUKUgiozpQW-39" value="Spark" style="rounded=0;whiteSpace=wrap;html=1;" vertex="1" parent="1">
          <mxGeometry x="388.5" y="858" width="50" height="80" as="geometry" />
        </mxCell>
        <mxCell id="p9WKnUkofUUKUgiozpQW-40" value="Kafka" style="rounded=0;whiteSpace=wrap;html=1;" vertex="1" parent="1">
          <mxGeometry x="451" y="858" width="50" height="80" as="geometry" />
        </mxCell>
        <mxCell id="p9WKnUkofUUKUgiozpQW-41" value="Flume" style="rounded=0;whiteSpace=wrap;html=1;" vertex="1" parent="1">
          <mxGeometry x="515" y="858" width="50" height="80" as="geometry" />
        </mxCell>
        <mxCell id="p9WKnUkofUUKUgiozpQW-42" value="Presto" style="rounded=0;whiteSpace=wrap;html=1;" vertex="1" parent="1">
          <mxGeometry x="644" y="858" width="47" height="80" as="geometry" />
        </mxCell>
        <mxCell id="p9WKnUkofUUKUgiozpQW-46" value="地理信息数据库" style="shape=cylinder3;whiteSpace=wrap;html=1;boundedLbl=1;backgroundOutline=1;size=15;" vertex="1" parent="1">
          <mxGeometry x="719" y="730" width="90" height="220" as="geometry" />
        </mxCell>
        <mxCell id="p9WKnUkofUUKUgiozpQW-47" value="船只历史数据" style="rounded=0;whiteSpace=wrap;html=1;" vertex="1" parent="1">
          <mxGeometry x="320" y="828" width="371" height="20" as="geometry" />
        </mxCell>
        <mxCell id="p9WKnUkofUUKUgiozpQW-48" value="违法信息记录" style="rounded=0;whiteSpace=wrap;html=1;" vertex="1" parent="1">
          <mxGeometry x="319" y="798" width="371" height="20" as="geometry" />
        </mxCell>
        <mxCell id="p9WKnUkofUUKUgiozpQW-49" value="执勤执法历史" style="rounded=0;whiteSpace=wrap;html=1;" vertex="1" parent="1">
          <mxGeometry x="319" y="768" width="371" height="20" as="geometry" />
        </mxCell>
        <mxCell id="p9WKnUkofUUKUgiozpQW-50" value="大数据存储与计算" style="text;html=1;strokeColor=none;fillColor=none;align=center;verticalAlign=middle;whiteSpace=wrap;rounded=0;" vertex="1" parent="1">
          <mxGeometry x="430" y="738" width="149" height="20" as="geometry" />
        </mxCell>
        <mxCell id="p9WKnUkofUUKUgiozpQW-53" value="数据中台" style="text;html=1;strokeColor=none;fillColor=none;align=center;verticalAlign=middle;whiteSpace=wrap;rounded=0;" vertex="1" parent="1">
          <mxGeometry x="492" y="698" width="73" height="20" as="geometry" />
        </mxCell>
        <mxCell id="p9WKnUkofUUKUgiozpQW-54" value="Sqoop" style="rounded=0;whiteSpace=wrap;html=1;" vertex="1" parent="1">
          <mxGeometry x="580" y="858" width="50" height="80" as="geometry" />
        </mxCell>
        <mxCell id="p9WKnUkofUUKUgiozpQW-55" value="目标智能识别" style="rounded=0;whiteSpace=wrap;html=1;" vertex="1" parent="1">
          <mxGeometry x="839" y="733" width="90" height="30" as="geometry" />
        </mxCell>
        <mxCell id="p9WKnUkofUUKUgiozpQW-56" value="船只联动跟踪" style="rounded=0;whiteSpace=wrap;html=1;" vertex="1" parent="1">
          <mxGeometry x="839" y="788" width="90" height="30" as="geometry" />
        </mxCell>
        <mxCell id="p9WKnUkofUUKUgiozpQW-57" value="违法信息处理" style="rounded=0;whiteSpace=wrap;html=1;" vertex="1" parent="1">
          <mxGeometry x="839" y="840" width="90" height="30" as="geometry" />
        </mxCell>
        <mxCell id="p9WKnUkofUUKUgiozpQW-58" value="监控视频管理" style="rounded=0;whiteSpace=wrap;html=1;" vertex="1" parent="1">
          <mxGeometry x="839" y="897" width="90" height="30" as="geometry" />
        </mxCell>
        <mxCell id="p9WKnUkofUUKUgiozpQW-59" value="设备信息管理" style="rounded=0;whiteSpace=wrap;html=1;" vertex="1" parent="1">
          <mxGeometry x="839" y="948" width="90" height="30" as="geometry" />
        </mxCell>
        <mxCell id="p9WKnUkofUUKUgiozpQW-60" value="登录验证" style="rounded=0;whiteSpace=wrap;html=1;" vertex="1" parent="1">
          <mxGeometry x="937" y="733" width="60" height="30" as="geometry" />
        </mxCell>
        <mxCell id="p9WKnUkofUUKUgiozpQW-61" value="权限管理" style="rounded=0;whiteSpace=wrap;html=1;" vertex="1" parent="1">
          <mxGeometry x="939" y="788" width="60" height="30" as="geometry" />
        </mxCell>
        <mxCell id="p9WKnUkofUUKUgiozpQW-62" value="数据查询" style="rounded=0;whiteSpace=wrap;html=1;" vertex="1" parent="1">
          <mxGeometry x="939" y="840" width="60" height="30" as="geometry" />
        </mxCell>
        <mxCell id="p9WKnUkofUUKUgiozpQW-63" value="消息推送" style="rounded=0;whiteSpace=wrap;html=1;" vertex="1" parent="1">
          <mxGeometry x="939" y="896" width="60" height="30" as="geometry" />
        </mxCell>
        <mxCell id="p9WKnUkofUUKUgiozpQW-64" value="GIS" style="rounded=0;whiteSpace=wrap;html=1;" vertex="1" parent="1">
          <mxGeometry x="939" y="948" width="60" height="30" as="geometry" />
        </mxCell>
        <mxCell id="p9WKnUkofUUKUgiozpQW-66" value="业务中台" style="text;html=1;strokeColor=none;fillColor=none;align=center;verticalAlign=middle;whiteSpace=wrap;rounded=0;" vertex="1" parent="1">
          <mxGeometry x="887" y="698" width="73" height="20" as="geometry" />
        </mxCell>
        <mxCell id="p9WKnUkofUUKUgiozpQW-67" value="中台" style="text;html=1;strokeColor=none;fillColor=none;align=center;verticalAlign=middle;whiteSpace=wrap;rounded=0;" vertex="1" parent="1">
          <mxGeometry x="100" y="828" width="70" height="14" as="geometry" />
        </mxCell>
        <mxCell id="p9WKnUkofUUKUgiozpQW-68" value="智能识别系统" style="rounded=0;whiteSpace=wrap;html=1;" vertex="1" parent="1">
          <mxGeometry x="207" y="630" width="116" height="30" as="geometry" />
        </mxCell>
        <mxCell id="p9WKnUkofUUKUgiozpQW-69" value="违法处理系统" style="rounded=0;whiteSpace=wrap;html=1;" vertex="1" parent="1">
          <mxGeometry x="339" y="630" width="117" height="30" as="geometry" />
        </mxCell>
        <mxCell id="p9WKnUkofUUKUgiozpQW-70" value="指挥调度系统" style="rounded=0;whiteSpace=wrap;html=1;" vertex="1" parent="1">
          <mxGeometry x="470" y="630" width="117" height="30" as="geometry" />
        </mxCell>
        <mxCell id="p9WKnUkofUUKUgiozpQW-71" value="视频监控系统" style="rounded=0;whiteSpace=wrap;html=1;" vertex="1" parent="1">
          <mxGeometry x="602" y="630" width="117" height="30" as="geometry" />
        </mxCell>
        <mxCell id="p9WKnUkofUUKUgiozpQW-72" value="设备管理系统" style="rounded=0;whiteSpace=wrap;html=1;" vertex="1" parent="1">
          <mxGeometry x="740" y="630" width="116" height="30" as="geometry" />
        </mxCell>
        <mxCell id="p9WKnUkofUUKUgiozpQW-73" value="地理信息系统" style="rounded=0;whiteSpace=wrap;html=1;" vertex="1" parent="1">
          <mxGeometry x="877" y="630" width="116" height="30" as="geometry" />
        </mxCell>
        <mxCell id="p9WKnUkofUUKUgiozpQW-75" value="" style="endArrow=none;html=1;" edge="1" parent="1">
          <mxGeometry width="50" height="50" relative="1" as="geometry">
            <mxPoint x="210" y="621" as="sourcePoint" />
            <mxPoint x="980" y="621" as="targetPoint" />
          </mxGeometry>
        </mxCell>
        <mxCell id="p9WKnUkofUUKUgiozpQW-76" value="船只追踪" style="rounded=0;whiteSpace=wrap;html=1;" vertex="1" parent="1">
          <mxGeometry x="259.75" y="530" width="97" height="30" as="geometry" />
        </mxCell>
        <mxCell id="p9WKnUkofUUKUgiozpQW-77" value="证据记录" style="rounded=0;whiteSpace=wrap;html=1;" vertex="1" parent="1">
          <mxGeometry x="496.75" y="530" width="97" height="30" as="geometry" />
        </mxCell>
        <mxCell id="p9WKnUkofUUKUgiozpQW-78" value="违法处理" style="rounded=0;whiteSpace=wrap;html=1;" vertex="1" parent="1">
          <mxGeometry x="378.75" y="530" width="97" height="30" as="geometry" />
        </mxCell>
        <mxCell id="p9WKnUkofUUKUgiozpQW-79" value="指挥调度" style="rounded=0;whiteSpace=wrap;html=1;" vertex="1" parent="1">
          <mxGeometry x="615.75" y="530" width="97" height="30" as="geometry" />
        </mxCell>
        <mxCell id="p9WKnUkofUUKUgiozpQW-80" value="视频巡逻" style="rounded=0;whiteSpace=wrap;html=1;" vertex="1" parent="1">
          <mxGeometry x="735.75" y="530" width="97" height="30" as="geometry" />
        </mxCell>
        <mxCell id="p9WKnUkofUUKUgiozpQW-81" value="立体监控" style="rounded=0;whiteSpace=wrap;html=1;" vertex="1" parent="1">
          <mxGeometry x="851.25" y="530" width="97" height="30" as="geometry" />
        </mxCell>
        <mxCell id="p9WKnUkofUUKUgiozpQW-82" value="统计分析" style="rounded=0;whiteSpace=wrap;html=1;" vertex="1" parent="1">
          <mxGeometry x="261.25" y="580" width="97" height="30" as="geometry" />
        </mxCell>
        <mxCell id="p9WKnUkofUUKUgiozpQW-83" value="卫星地图" style="rounded=0;whiteSpace=wrap;html=1;" vertex="1" parent="1">
          <mxGeometry x="376.75" y="580" width="97" height="30" as="geometry" />
        </mxCell>
        <mxCell id="p9WKnUkofUUKUgiozpQW-84" value="要素显示" style="rounded=0;whiteSpace=wrap;html=1;" vertex="1" parent="1">
          <mxGeometry x="496.75" y="580" width="97" height="30" as="geometry" />
        </mxCell>
        <mxCell id="p9WKnUkofUUKUgiozpQW-85" value="巡查记录" style="rounded=0;whiteSpace=wrap;html=1;" vertex="1" parent="1">
          <mxGeometry x="615.75" y="580" width="97" height="30" as="geometry" />
        </mxCell>
        <mxCell id="p9WKnUkofUUKUgiozpQW-86" value="设备管理" style="rounded=0;whiteSpace=wrap;html=1;" vertex="1" parent="1">
          <mxGeometry x="851.25" y="580" width="97" height="30" as="geometry" />
        </mxCell>
        <mxCell id="p9WKnUkofUUKUgiozpQW-87" value="人员管理" style="rounded=0;whiteSpace=wrap;html=1;" vertex="1" parent="1">
          <mxGeometry x="735.75" y="580" width="97" height="30" as="geometry" />
        </mxCell>
        <mxCell id="p9WKnUkofUUKUgiozpQW-90" value="应用层" style="text;html=1;strokeColor=none;fillColor=none;align=center;verticalAlign=middle;whiteSpace=wrap;rounded=0;" vertex="1" parent="1">
          <mxGeometry x="110" y="580" width="70" height="14" as="geometry" />
        </mxCell>
        <mxCell id="p9WKnUkofUUKUgiozpQW-92" value="防火墙&amp;nbsp; &amp;nbsp; &amp;nbsp; &amp;nbsp; &amp;nbsp; &amp;nbsp; &amp;nbsp; &amp;nbsp; &amp;nbsp; &amp;nbsp; &amp;nbsp; &amp;nbsp; &amp;nbsp; &amp;nbsp; &amp;nbsp; &amp;nbsp; &amp;nbsp; &amp;nbsp; &amp;nbsp; &amp;nbsp; &amp;nbsp; &amp;nbsp; &amp;nbsp; &amp;nbsp; &amp;nbsp; &amp;nbsp; &amp;nbsp; &amp;nbsp; &amp;nbsp; &amp;nbsp; &amp;nbsp; &amp;nbsp; &amp;nbsp; &amp;nbsp; 安全隔离装置" style="rounded=0;whiteSpace=wrap;html=1;" vertex="1" parent="1">
          <mxGeometry x="190" y="480" width="820" height="30" as="geometry" />
        </mxCell>
        <mxCell id="p9WKnUkofUUKUgiozpQW-93" value="" style="fontColor=#0066CC;verticalAlign=top;verticalLabelPosition=bottom;labelPosition=center;align=center;html=1;outlineConnect=0;fillColor=#CCCCCC;strokeColor=#6881B3;gradientColor=none;gradientDirection=north;strokeWidth=2;shape=mxgraph.networks.pc;" vertex="1" parent="1">
          <mxGeometry x="280" y="360" width="87" height="55" as="geometry" />
        </mxCell>
        <mxCell id="p9WKnUkofUUKUgiozpQW-109" value="" style="group" vertex="1" connectable="0" parent="1">
          <mxGeometry x="530" y="350" width="172" height="80" as="geometry" />
        </mxCell>
        <mxCell id="p9WKnUkofUUKUgiozpQW-107" value="" style="rounded=0;whiteSpace=wrap;html=1;" vertex="1" parent="p9WKnUkofUUKUgiozpQW-109">
          <mxGeometry y="53.33333333333333" width="172" height="26.666666666666664" as="geometry" />
        </mxCell>
        <mxCell id="p9WKnUkofUUKUgiozpQW-98" value="" style="rounded=0;whiteSpace=wrap;html=1;" vertex="1" parent="p9WKnUkofUUKUgiozpQW-109">
          <mxGeometry width="172" height="53.33333333333333" as="geometry" />
        </mxCell>
        <mxCell id="p9WKnUkofUUKUgiozpQW-100" value="" style="endArrow=none;html=1;exitX=0;exitY=0.5;exitDx=0;exitDy=0;entryX=1;entryY=0.5;entryDx=0;entryDy=0;" edge="1" parent="p9WKnUkofUUKUgiozpQW-109" source="p9WKnUkofUUKUgiozpQW-98" target="p9WKnUkofUUKUgiozpQW-98">
          <mxGeometry width="50" height="50" relative="1" as="geometry">
            <mxPoint x="17.865580448065174" as="sourcePoint" />
            <mxPoint x="150.9816700610998" y="58.666666666666664" as="targetPoint" />
            <Array as="points">
              <mxPoint x="80.2948402948403" y="26.90909090909091" />
            </Array>
          </mxGeometry>
        </mxCell>
        <mxCell id="p9WKnUkofUUKUgiozpQW-103" value="" style="endArrow=none;html=1;exitX=0.25;exitY=1;exitDx=0;exitDy=0;entryX=0.25;entryY=0;entryDx=0;entryDy=0;" edge="1" parent="p9WKnUkofUUKUgiozpQW-109" source="p9WKnUkofUUKUgiozpQW-107" target="p9WKnUkofUUKUgiozpQW-98">
          <mxGeometry width="50" height="50" relative="1" as="geometry">
            <mxPoint x="10.85947046843177" y="16" as="sourcePoint" />
            <mxPoint x="45.890020366598776" y="-10.666666666666666" as="targetPoint" />
          </mxGeometry>
        </mxCell>
        <mxCell id="p9WKnUkofUUKUgiozpQW-104" value="" style="endArrow=none;html=1;entryX=0.5;entryY=0;entryDx=0;entryDy=0;exitX=0.5;exitY=1;exitDx=0;exitDy=0;" edge="1" parent="p9WKnUkofUUKUgiozpQW-109" source="p9WKnUkofUUKUgiozpQW-107" target="p9WKnUkofUUKUgiozpQW-98">
          <mxGeometry width="50" height="50" relative="1" as="geometry">
            <mxPoint x="45.890020366598776" y="122.66666666666666" as="sourcePoint" />
            <mxPoint x="80.92057026476579" y="96" as="targetPoint" />
          </mxGeometry>
        </mxCell>
        <mxCell id="p9WKnUkofUUKUgiozpQW-106" value="" style="endArrow=none;html=1;entryX=0.75;entryY=0;entryDx=0;entryDy=0;exitX=0.75;exitY=1;exitDx=0;exitDy=0;" edge="1" parent="p9WKnUkofUUKUgiozpQW-109" source="p9WKnUkofUUKUgiozpQW-107" target="p9WKnUkofUUKUgiozpQW-98">
          <mxGeometry width="50" height="50" relative="1" as="geometry">
            <mxPoint x="129.26272912423624" y="48" as="sourcePoint" />
            <mxPoint x="249.0672097759674" y="32" as="targetPoint" />
          </mxGeometry>
        </mxCell>
        <mxCell id="p9WKnUkofUUKUgiozpQW-110" value="" style="verticalLabelPosition=bottom;verticalAlign=top;html=1;shadow=0;dashed=0;strokeWidth=1;shape=mxgraph.android.phone2;strokeColor=#56517e;fillColor=#d0cee2;" vertex="1" parent="1">
          <mxGeometry x="890" y="350" width="40" height="75" as="geometry" />
        </mxCell>
        <mxCell id="p9WKnUkofUUKUgiozpQW-111" value="展示层" style="text;html=1;strokeColor=none;fillColor=none;align=center;verticalAlign=middle;whiteSpace=wrap;rounded=0;" vertex="1" parent="1">
          <mxGeometry x="100" y="388" width="70" height="14" as="geometry" />
        </mxCell>
        <mxCell id="p9WKnUkofUUKUgiozpQW-112" value="PC端" style="text;html=1;strokeColor=none;fillColor=none;align=center;verticalAlign=middle;whiteSpace=wrap;rounded=0;" vertex="1" parent="1">
          <mxGeometry x="262" y="440" width="70" height="14" as="geometry" />
        </mxCell>
        <mxCell id="p9WKnUkofUUKUgiozpQW-113" value="大屏端" style="text;html=1;strokeColor=none;fillColor=none;align=center;verticalAlign=middle;whiteSpace=wrap;rounded=0;" vertex="1" parent="1">
          <mxGeometry x="585.25" y="440" width="70" height="14" as="geometry" />
        </mxCell>
        <mxCell id="p9WKnUkofUUKUgiozpQW-114" value="移动端" style="text;html=1;strokeColor=none;fillColor=none;align=center;verticalAlign=middle;whiteSpace=wrap;rounded=0;" vertex="1" parent="1">
          <mxGeometry x="877" y="440" width="70" height="14" as="geometry" />
        </mxCell>
      </root>
    </mxGraphModel>
  </diagram>
</mxfile>
